<svg width="17" height="18" viewBox="0 0 17 18" fill="none" xmlns="http://www.w3.org/2000/svg">
<path fill-rule="evenodd" clip-rule="evenodd" d="M7.05272 0.469238C3.36442 0.469238 0.375 3.45865 0.375 7.14696C0.375 10.8353 3.36442 13.8247 7.05272 13.8247C8.57497 13.8247 9.97817 13.3155 11.1013 12.4581L15.8773 17.2341L16.7612 16.3502L12.0206 11.6096C13.0837 10.4269 13.7304 8.86255 13.7304 7.14696C13.7304 3.45865 10.741 0.469238 7.05272 0.469238ZM1.625 7.14696C1.625 4.14901 4.05477 1.71924 7.05272 1.71924C10.0507 1.71924 12.4804 4.14901 12.4804 7.14696C12.4804 10.1449 10.0507 12.5747 7.05272 12.5747C4.05477 12.5747 1.625 10.1449 1.625 7.14696Z" fill="#161412"/>
</svg>
