<svg width="17" height="18" viewBox="0 0 17 18" fill="none" xmlns="http://www.w3.org/2000/svg">
<path fill-rule="evenodd" clip-rule="evenodd" d="M7.05272 0.469198C3.36442 0.469198 0.375 3.45861 0.375 7.14692C0.375 10.8352 3.36442 13.8246 7.05272 13.8246C8.57497 13.8246 9.97817 13.3154 11.1013 12.458L15.8773 17.2341L16.7612 16.3502L12.0206 11.6095C13.0837 10.4269 13.7304 8.86251 13.7304 7.14692C13.7304 3.45861 10.741 0.469198 7.05272 0.469198ZM1.625 7.14692C1.625 4.14897 4.05477 1.7192 7.05272 1.7192C10.0507 1.7192 12.4804 4.14897 12.4804 7.14692C12.4804 10.1449 10.0507 12.5746 7.05272 12.5746C4.05477 12.5746 1.625 10.1449 1.625 7.14692Z" fill="#161412"/>
</svg>
